<svg width="30" height="30" viewBox="0 0 30 30" fill="none" xmlns="http://www.w3.org/2000/svg">
<g clip-path="url(#clip0_1313_2606)">
<path fill-rule="evenodd" clip-rule="evenodd" d="M15.3189 0.800293C7.30868 0.800293 0.796143 7.31283 0.796143 15.323C0.796143 23.3332 7.30868 29.8458 15.3189 29.8458C23.3291 29.8458 29.8416 23.3332 29.8416 15.323C29.8416 7.31283 23.3291 0.800293 15.3189 0.800293Z" fill="#999999"/>
<path fill-rule="evenodd" clip-rule="evenodd" d="M22.342 10.4287C22.6938 10.7804 22.6938 11.3591 22.342 11.7108L13.8326 20.2202C13.6568 20.3961 13.4242 20.4868 13.1916 20.4868C12.959 20.4868 12.7264 20.3961 12.5505 20.2202L8.29584 15.9655C7.94411 15.6138 7.94411 15.0351 8.29584 14.6834C8.64756 14.3317 9.2262 14.3317 9.57792 14.6834L13.1916 18.2971L21.06 10.4287C21.4117 10.0713 21.9903 10.0713 22.342 10.4287Z" fill="white"/>
</g>
<defs>
<clipPath id="clip0_1313_2606">
<rect width="29.0455" height="29.0455" fill="white" transform="translate(0.796143 0.800293)"/>
</clipPath>
</defs>
</svg>
